<svg width="20" height="20" viewBox="0 0 20 20" fill="none" xmlns="http://www.w3.org/2000/svg">
<path d="M18.75 8.75032H4.78753L10.8875 2.65032C11.375 2.16282 11.375 1.36282 10.8875 0.87532C10.7719 0.759441 10.6345 0.667506 10.4833 0.60478C10.3321 0.542053 10.17 0.509766 10.0063 0.509766C9.84257 0.509766 9.68046 0.542053 9.52925 0.60478C9.37803 0.667506 9.24067 0.759441 9.12503 0.87532L0.887528 9.11282C0.771648 9.22846 0.679714 9.36582 0.616987 9.51704C0.55426 9.66826 0.521973 9.83036 0.521973 9.99407C0.521973 10.1578 0.55426 10.3199 0.616987 10.4711C0.679714 10.6223 0.771648 10.7597 0.887528 10.8753L9.12503 19.1128C9.24076 19.2285 9.37814 19.3203 9.52935 19.383C9.68055 19.4456 9.84262 19.4778 10.0063 19.4778C10.1699 19.4778 10.332 19.4456 10.4832 19.383C10.6344 19.3203 10.7718 19.2285 10.8875 19.1128C11.0033 18.9971 11.0951 18.8597 11.1577 18.7085C11.2203 18.5573 11.2526 18.3952 11.2526 18.2316C11.2526 18.0679 11.2203 17.9058 11.1577 17.7546C11.0951 17.6034 11.0033 17.466 10.8875 17.3503L4.78753 11.2503H18.75C19.4375 11.2503 20 10.6878 20 10.0003C20 9.31282 19.4375 8.75032 18.75 8.75032Z" fill="white"/>
</svg>
