<svg width="20" height="20" viewBox="0 0 20 20" fill="none" xmlns="http://www.w3.org/2000/svg">
<path d="M10 19C11.1046 19 12 18.1046 12 17C12 15.8954 11.1046 15 10 15C8.89543 15 8 15.8954 8 17C8 18.1046 8.89543 19 10 19Z" fill="#C1C1C1"/>
<path d="M10 13C11.1046 13 12 12.1046 12 11C12 9.89543 11.1046 9 10 9C8.89543 9 8 9.89543 8 11C8 12.1046 8.89543 13 10 13Z" fill="#C1C1C1"/>
<path d="M10 7C11.1046 7 12 6.10457 12 5C12 3.89543 11.1046 3 10 3C8.89543 3 8 3.89543 8 5C8 6.10457 8.89543 7 10 7Z" fill="#C1C1C1"/>
</svg>
